<svg enable-background="new 0 0 64 64" height="64px" id="Layer_1" version="1.1" viewBox="0 0 64 64" width="64px" xml:space="preserve" xmlns="http://www.w3.org/2000/svg" xmlns:xlink="http://www.w3.org/1999/xlink">
  <g>
    <path d="M21.751,19.927H11.113c-2.523,0-4.559,2.039-4.559,4.56v39.512H26.31V24.487   C26.31,21.966,24.259,19.927,21.751,19.927z M23.167,61.076H9.68V27.44c0-2.146,1.393-3.881,3.113-3.881h7.26   c1.713,0,3.113,1.735,3.113,3.881V61.076z" fill="#241F20"/>
    <path d="M16.936,17.09c2.513-0.267,4.359-2.394,4.335-4.883c0.016-0.002,0.033-0.003,0.033-0.003   s0.3-3.521-6.189-12.203c1.876,4.333-1.333,6.799-2.867,9.759c-0.042,0.053-0.068,0.103-0.08,0.154   c-0.08,0.153-0.16,0.306-0.237,0.475c-0.065,0.151-0.127,0.318-0.175,0.484c-0.009,0.049-0.021,0.1-0.033,0.148   c-0.15,0.547-0.2,1.131-0.136,1.736C11.874,15.444,14.266,17.375,16.936,17.09z M14.268,11.017c0.009-0.022,0.02-0.046,0.027-0.068   c0.034-0.077,0.077-0.151,0.119-0.219c0.047-0.076,0.098-0.143,0.148-0.21c0.008-0.023,0.024-0.046,0.048-0.068   c0.944-1.304,2.653-2.253,2.065-4.459c2.481,4.611,2.087,6.272,2.087,6.272s-0.009,0-0.015,0c-0.166,1.191-1.202,2.076-2.42,2.023   c-1.296-0.054-2.302-1.147-2.247-2.45C14.093,11.543,14.159,11.267,14.268,11.017z" fill="#241F20"/>
    <path d="M57.276,21.05c-4.853,4.693-10.083,6.785-13.166,7.491c-3.081,0.707-11.582,3.662-14.292,10.883   c-4.48,15.126,2.608,24.575,2.608,24.575c-4.688-17.054,2.894-20.577,8.246-23.593c0.929-0.511,1.748-0.992,2.52-1.458   c-0.029,0.021-0.055,0.039-0.085,0.062c-9.989,7.08-9.911,11.093-9.968,13.941c-0.038,2.02,0.677,2.004,1.577,1.491   c0.439-0.174,8.758-3.454,11.585-5.225c0.001,0,0.003,0,0.005-0.003c1.648-0.883,3.529-2.118,5.251-3.806   C58.983,37.782,57.276,21.05,57.276,21.05z M48.666,44.151c-0.524,0.401-1.062,0.749-1.594,1.049c0,0-5.005,3.086-8.233,3.024   c-0.27-0.055-0.321-0.519-0.188-1.137c0.95-2.017,2.98-4.091,4.282-5.289c0.387-0.333,0.78-0.674,1.163-1.025   c0.004-0.002,0.015-0.012,0.015-0.012h-0.003c0.469-0.424,0.921-0.857,1.323-1.285c0.026-0.023,0.047-0.038,0.071-0.062   c1.431-1.356,1.599-2.3,1.575-2.745c0.005-0.03,0.013-0.065,0.019-0.095c-0.007-0.051-0.031-0.093-0.048-0.137   c-0.014-0.038-0.021-0.065-0.021-0.065h-0.004c-0.278-0.511-1.246-0.528-1.253-0.528c-2.775,0.808-8.645,2.864-12.271,6.655   c-0.016,0.015-0.019,0.009-0.035,0.026c-0.886,0.857-1.187-0.226-1.209-0.318c0.147-0.982,0.631-2.285,1.591-3.573   c-0.003,0-0.009,0-0.012,0c0.015-0.015,0.031-0.029,0.044-0.047c0.08-0.107,0.171-0.211,0.257-0.318l-0.004-0.003   c0,0,2.159-3.976,9.936-6.413c0.005-0.002,0.009-0.002,0.014-0.004c1.762-0.711,3.45-1.254,4.889-1.654   c0.007-0.002,0.01-0.006,0.018-0.008c1.196-0.349,4.862-1.294,4.862-1.294v0.002c0.346-0.144,0.709-0.189,0.671,0.312   C54.321,31.945,53.348,40.421,48.666,44.151z" fill="#241F20"/>
  </g>
</svg>
